<mxfile host="app.diagrams.net" agent="Mozilla/5.0 (Windows NT 10.0; Win64; x64) AppleWebKit/537.36 (KHTML, like Gecko) Chrome/135.0.0.0 Safari/537.36" version="26.2.9">
  <diagram name="PÃ¡gina-1" id="3Dw3Flcatz1TSls1RwJU">
    <mxGraphModel dx="788" dy="391" grid="1" gridSize="10" guides="1" tooltips="1" connect="1" arrows="1" fold="1" page="1" pageScale="1" pageWidth="827" pageHeight="1169" math="0" shadow="0">
      <root>
        <mxCell id="0" />
        <mxCell id="1" parent="0" />
        <mxCell id="d_kcm4Z22B9W5w7Us7ZB-2" value="Classname" style="swimlane;fontStyle=0;childLayout=stackLayout;horizontal=1;startSize=26;fillColor=none;horizontalStack=0;resizeParent=1;resizeParentMax=0;resizeLast=0;collapsible=1;marginBottom=0;whiteSpace=wrap;html=1;" vertex="1" parent="1">
          <mxGeometry x="300" y="110" width="140" height="104" as="geometry" />
        </mxCell>
        <mxCell id="d_kcm4Z22B9W5w7Us7ZB-3" value="+ field: type" style="text;strokeColor=none;fillColor=none;align=left;verticalAlign=top;spacingLeft=4;spacingRight=4;overflow=hidden;rotatable=0;points=[[0,0.5],[1,0.5]];portConstraint=eastwest;whiteSpace=wrap;html=1;" vertex="1" parent="d_kcm4Z22B9W5w7Us7ZB-2">
          <mxGeometry y="26" width="140" height="26" as="geometry" />
        </mxCell>
        <mxCell id="d_kcm4Z22B9W5w7Us7ZB-4" value="+ field: type" style="text;strokeColor=none;fillColor=none;align=left;verticalAlign=top;spacingLeft=4;spacingRight=4;overflow=hidden;rotatable=0;points=[[0,0.5],[1,0.5]];portConstraint=eastwest;whiteSpace=wrap;html=1;" vertex="1" parent="d_kcm4Z22B9W5w7Us7ZB-2">
          <mxGeometry y="52" width="140" height="26" as="geometry" />
        </mxCell>
        <mxCell id="d_kcm4Z22B9W5w7Us7ZB-5" value="+ field: type" style="text;strokeColor=none;fillColor=none;align=left;verticalAlign=top;spacingLeft=4;spacingRight=4;overflow=hidden;rotatable=0;points=[[0,0.5],[1,0.5]];portConstraint=eastwest;whiteSpace=wrap;html=1;" vertex="1" parent="d_kcm4Z22B9W5w7Us7ZB-2">
          <mxGeometry y="78" width="140" height="26" as="geometry" />
        </mxCell>
        <mxCell id="d_kcm4Z22B9W5w7Us7ZB-30" style="edgeStyle=none;rounded=0;orthogonalLoop=1;jettySize=auto;html=1;curved=0;" edge="1" parent="1" source="d_kcm4Z22B9W5w7Us7ZB-14" target="d_kcm4Z22B9W5w7Us7ZB-20">
          <mxGeometry relative="1" as="geometry">
            <Array as="points">
              <mxPoint x="350" y="410" />
            </Array>
          </mxGeometry>
        </mxCell>
        <mxCell id="d_kcm4Z22B9W5w7Us7ZB-33" style="edgeStyle=none;rounded=0;orthogonalLoop=1;jettySize=auto;html=1;curved=0;" edge="1" parent="1">
          <mxGeometry relative="1" as="geometry">
            <mxPoint x="284.5" y="570" as="sourcePoint" />
            <mxPoint x="74.5" y="570" as="targetPoint" />
            <Array as="points">
              <mxPoint x="240" y="570" />
              <mxPoint x="180" y="570" />
            </Array>
          </mxGeometry>
        </mxCell>
        <mxCell id="d_kcm4Z22B9W5w7Us7ZB-14" value="" style="shape=umlLifeline;perimeter=lifelinePerimeter;whiteSpace=wrap;html=1;container=1;dropTarget=0;collapsible=0;recursiveResize=0;outlineConnect=0;portConstraint=eastwest;newEdgeStyle={&quot;curved&quot;:0,&quot;rounded&quot;:0};participant=umlBoundary;" vertex="1" parent="1">
          <mxGeometry x="260" y="250" width="50" height="390" as="geometry" />
        </mxCell>
        <mxCell id="d_kcm4Z22B9W5w7Us7ZB-31" style="edgeStyle=none;rounded=0;orthogonalLoop=1;jettySize=auto;html=1;curved=0;" edge="1" parent="1">
          <mxGeometry relative="1" as="geometry">
            <mxPoint x="534.5" y="480" as="sourcePoint" />
            <mxPoint x="393.5" y="480" as="targetPoint" />
            <Array as="points">
              <mxPoint x="490" y="480" />
            </Array>
          </mxGeometry>
        </mxCell>
        <mxCell id="d_kcm4Z22B9W5w7Us7ZB-17" value="" style="shape=umlLifeline;perimeter=lifelinePerimeter;whiteSpace=wrap;html=1;container=1;dropTarget=0;collapsible=0;recursiveResize=0;outlineConnect=0;portConstraint=eastwest;newEdgeStyle={&quot;curved&quot;:0,&quot;rounded&quot;:0};participant=umlEntity;" vertex="1" parent="1">
          <mxGeometry x="510" y="250" width="50" height="300" as="geometry" />
        </mxCell>
        <mxCell id="d_kcm4Z22B9W5w7Us7ZB-25" style="edgeStyle=none;rounded=0;orthogonalLoop=1;jettySize=auto;html=1;curved=0;" edge="1" parent="1" source="d_kcm4Z22B9W5w7Us7ZB-20" target="d_kcm4Z22B9W5w7Us7ZB-17">
          <mxGeometry relative="1" as="geometry">
            <Array as="points">
              <mxPoint x="470" y="440" />
            </Array>
          </mxGeometry>
        </mxCell>
        <mxCell id="d_kcm4Z22B9W5w7Us7ZB-32" style="edgeStyle=none;rounded=0;orthogonalLoop=1;jettySize=auto;html=1;curved=0;" edge="1" parent="1" target="d_kcm4Z22B9W5w7Us7ZB-14">
          <mxGeometry relative="1" as="geometry">
            <mxPoint x="393.5" y="520" as="sourcePoint" />
            <mxPoint x="260" y="520" as="targetPoint" />
          </mxGeometry>
        </mxCell>
        <mxCell id="d_kcm4Z22B9W5w7Us7ZB-20" value="" style="shape=umlLifeline;perimeter=lifelinePerimeter;whiteSpace=wrap;html=1;container=1;dropTarget=0;collapsible=0;recursiveResize=0;outlineConnect=0;portConstraint=eastwest;newEdgeStyle={&quot;curved&quot;:0,&quot;rounded&quot;:0};participant=umlControl;" vertex="1" parent="1">
          <mxGeometry x="374" y="250" width="40" height="300" as="geometry" />
        </mxCell>
        <mxCell id="d_kcm4Z22B9W5w7Us7ZB-29" style="edgeStyle=none;rounded=0;orthogonalLoop=1;jettySize=auto;html=1;curved=0;" edge="1" parent="1" source="d_kcm4Z22B9W5w7Us7ZB-27" target="d_kcm4Z22B9W5w7Us7ZB-14">
          <mxGeometry relative="1" as="geometry">
            <Array as="points">
              <mxPoint x="200" y="370" />
            </Array>
          </mxGeometry>
        </mxCell>
        <mxCell id="d_kcm4Z22B9W5w7Us7ZB-27" value="" style="shape=umlLifeline;perimeter=lifelinePerimeter;whiteSpace=wrap;html=1;container=1;dropTarget=0;collapsible=0;recursiveResize=0;outlineConnect=0;portConstraint=eastwest;newEdgeStyle={&quot;curved&quot;:0,&quot;rounded&quot;:0};participant=umlActor;" vertex="1" parent="1">
          <mxGeometry x="60" y="260" width="30" height="300" as="geometry" />
        </mxCell>
        <mxCell id="d_kcm4Z22B9W5w7Us7ZB-34" style="edgeStyle=none;rounded=0;orthogonalLoop=1;jettySize=auto;html=1;curved=0;" edge="1" parent="1">
          <mxGeometry relative="1" as="geometry">
            <mxPoint x="393.5" y="510" as="sourcePoint" />
            <mxPoint x="285" y="510" as="targetPoint" />
          </mxGeometry>
        </mxCell>
      </root>
    </mxGraphModel>
  </diagram>
</mxfile>
